<svg xmlns="http://www.w3.org/2000/svg" viewBox="0 0 400 400" fill="none">
  <rect x="70" y="86" width="120" height="22" rx="5" fill="#3b82f6" opacity="0.85"/>
  <circle cx="82" cy="97" r="2.4" fill="#dbeafe" opacity="0.9"/>
  <circle cx="90" cy="97" r="2.4" fill="#dbeafe" opacity="0.7"/>
  <circle cx="98" cy="97" r="2.4" fill="#dbeafe" opacity="0.5"/>
  <text x="110" y="101" font-size="11" font-family="ui-monospace, SFMono-Regular, Menlo, monospace" fill="#f0f7ff">styles.css</text>

  <rect x="60" y="108" width="280" height="232" rx="10" fill="#163a5c" opacity="0.35" stroke="#3b82f6" stroke-width="1.8"/>

  <rect x="78" y="128" width="56" height="8" rx="2" fill="#60a5fa" opacity="0.9"/>
  <rect x="138" y="128" width="8" height="8" rx="1" fill="#dbeafe" opacity="0.45"/>
  <rect x="150" y="128" width="40" height="8" rx="2" fill="#3b82f6" opacity="0.55"/>

  <rect x="90" y="146" width="44" height="6" rx="2" fill="#60a5fa" opacity="0.7"/>
  <rect x="140" y="146" width="4" height="6" rx="1" fill="#dbeafe" opacity="0.5"/>
  <rect x="150" y="146" width="70" height="6" rx="2" fill="#60a5fa" opacity="0.45"/>

  <rect x="90" y="160" width="38" height="6" rx="2" fill="#60a5fa" opacity="0.7"/>
  <rect x="134" y="160" width="4" height="6" rx="1" fill="#dbeafe" opacity="0.5"/>
  <g transform="translate(144 156)">
    <rect x="0" y="0" width="16" height="14" rx="2" fill="#f472b6" opacity="0.2" stroke="#f472b6" stroke-width="1.2"/>
    <polyline points="3,7 7,11 13,4" fill="none" stroke="#f472b6" stroke-width="1.8" stroke-linecap="round" stroke-linejoin="round"/>
  </g>
  <rect x="166" y="160" width="3" height="6" rx="1" fill="#f472b6" opacity="0.6"/>
  <rect x="172" y="160" width="5" height="6" rx="1" fill="#f472b6" opacity="0.4"/>
  <rect x="180" y="160" width="3" height="6" rx="1" fill="#f472b6" opacity="0.5"/>
  <rect x="186" y="160" width="6" height="6" rx="1" fill="#f472b6" opacity="0.35"/>
  <rect x="195" y="160" width="4" height="6" rx="1" fill="#f472b6" opacity="0.55"/>

  <rect x="90" y="178" width="32" height="6" rx="2" fill="#60a5fa" opacity="0.7"/>
  <rect x="128" y="178" width="4" height="6" rx="1" fill="#dbeafe" opacity="0.5"/>
  <rect x="138" y="178" width="82" height="6" rx="2" fill="#60a5fa" opacity="0.45"/>

  <rect x="78" y="198" width="60" height="8" rx="2" fill="#60a5fa" opacity="0.9"/>
  <rect x="142" y="198" width="8" height="8" rx="1" fill="#dbeafe" opacity="0.45"/>
  <rect x="154" y="198" width="44" height="8" rx="2" fill="#3b82f6" opacity="0.55"/>

  <rect x="90" y="216" width="44" height="6" rx="2" fill="#60a5fa" opacity="0.7"/>
  <rect x="140" y="216" width="4" height="6" rx="1" fill="#dbeafe" opacity="0.5"/>
  <g transform="translate(150 212)">
    <rect x="0" y="0" width="16" height="14" rx="2" fill="#f472b6" opacity="0.2" stroke="#f472b6" stroke-width="1.2"/>
    <polyline points="4,7 10,7 10,4 14,8 10,12 10,9 4,9" fill="#f472b6" opacity="0.85"/>
  </g>
  <rect x="172" y="216" width="4" height="6" rx="1" fill="#f472b6" opacity="0.6"/>
  <rect x="180" y="216" width="6" height="6" rx="1" fill="#f472b6" opacity="0.4"/>
  <rect x="190" y="216" width="3" height="6" rx="1" fill="#f472b6" opacity="0.5"/>
  <rect x="197" y="216" width="5" height="6" rx="1" fill="#f472b6" opacity="0.35"/>
  <rect x="206" y="216" width="3" height="6" rx="1" fill="#f472b6" opacity="0.55"/>

  <rect x="90" y="234" width="36" height="6" rx="2" fill="#60a5fa" opacity="0.7"/>
  <rect x="132" y="234" width="4" height="6" rx="1" fill="#dbeafe" opacity="0.5"/>
  <rect x="142" y="234" width="68" height="6" rx="2" fill="#60a5fa" opacity="0.45"/>

  <rect x="78" y="254" width="54" height="8" rx="2" fill="#60a5fa" opacity="0.9"/>
  <rect x="136" y="254" width="8" height="8" rx="1" fill="#dbeafe" opacity="0.45"/>
  <rect x="148" y="254" width="38" height="8" rx="2" fill="#3b82f6" opacity="0.55"/>

  <rect x="90" y="272" width="40" height="6" rx="2" fill="#60a5fa" opacity="0.7"/>
  <rect x="136" y="272" width="4" height="6" rx="1" fill="#dbeafe" opacity="0.5"/>
  <g transform="translate(146 268)">
    <circle cx="7" cy="7" r="6.5" fill="none" stroke="#f472b6" stroke-width="1.4"/>
    <circle cx="7" cy="7" r="2.4" fill="#f472b6" opacity="0.85"/>
  </g>
  <rect x="164" y="272" width="3" height="6" rx="1" fill="#f472b6" opacity="0.6"/>
  <rect x="170" y="272" width="6" height="6" rx="1" fill="#f472b6" opacity="0.4"/>
  <rect x="179" y="272" width="4" height="6" rx="1" fill="#f472b6" opacity="0.55"/>
  <rect x="186" y="272" width="3" height="6" rx="1" fill="#f472b6" opacity="0.45"/>
  <rect x="192" y="272" width="5" height="6" rx="1" fill="#f472b6" opacity="0.35"/>

  <rect x="78" y="308" width="140" height="14" rx="3" fill="#3b82f6" opacity="0.12" stroke="#3b82f6" stroke-width="1" stroke-dasharray="3 2"/>
  <text x="84" y="318" font-size="9" font-family="ui-monospace, SFMono-Regular, Menlo, monospace" fill="#dbeafe" opacity="0.55">url(&quot;data:image/svg+xml,...&quot;)</text>
</svg>
