<svg xmlns="http://www.w3.org/2000/svg" viewBox="0 0 400 400" fill="none">
  <circle cx="80" cy="80" r="26" fill="#3b82f6"/>
  <circle cx="140" cy="80" r="26" fill="#60a5fa"/>
  <circle cx="200" cy="80" r="26" fill="#a78bfa"/>
  <circle cx="260" cy="80" r="26" fill="#f87171"/>
  <circle cx="320" cy="80" r="26" fill="#fbbf24"/>
  <rect x="54" y="150" width="140" height="48" rx="24" fill="#3b82f6"/>
  <rect x="80" y="170" width="88" height="8" rx="4" fill="#ffffff"/>
  <rect x="206" y="150" width="140" height="48" rx="10" fill="#0f1e3d" stroke="#60a5fa" stroke-width="2"/>
  <rect x="224" y="170" width="60" height="8" rx="4" fill="#60a5fa" opacity="0.6"/>
  <circle cx="330" cy="174" r="5" fill="#60a5fa"/>
  <rect x="54" y="222" width="292" height="132" rx="14" fill="#1e3a6b"/>
  <rect x="54" y="222" width="292" height="36" rx="14" fill="#3b82f6" opacity="0.25"/>
  <rect x="76" y="238" width="70" height="8" rx="4" fill="#dbeafe"/>
  <rect x="76" y="278" width="160" height="7" rx="3" fill="#dbeafe" opacity="0.55"/>
  <rect x="76" y="293" width="200" height="7" rx="3" fill="#dbeafe" opacity="0.55"/>
  <rect x="76" y="308" width="120" height="7" rx="3" fill="#dbeafe" opacity="0.55"/>
  <rect x="76" y="328" width="72" height="18" rx="9" fill="#f87171"/>
  <rect x="160" y="328" width="56" height="18" rx="9" fill="#0f1e3d" stroke="#60a5fa" stroke-width="1.5"/>
</svg>
