<svg xmlns="http://www.w3.org/2000/svg" viewBox="0 0 400 400" fill="none" font-family="-apple-system, BlinkMacSystemFont, 'Pretendard', 'Apple SD Gothic Neo', sans-serif">

  <rect x="100" y="110" width="240" height="150" rx="4" fill="#5eead4" opacity="0.14" stroke="#5eead4" stroke-width="1.4" stroke-dasharray="5 3"/>

  <rect x="62" y="88" width="278" height="14" fill="#16304b" opacity="0.55"/>
  <line x1="62" y1="102" x2="340" y2="102" stroke="#5eead4" stroke-width="1" opacity="0.8"/>
  <g stroke="#5eead4" stroke-width="1" opacity="0.85">
    <line x1="72" y1="94" x2="72" y2="102"/>
    <line x1="86" y1="97" x2="86" y2="102"/>
    <line x1="100" y1="90" x2="100" y2="102"/>
    <line x1="114" y1="97" x2="114" y2="102"/>
    <line x1="128" y1="94" x2="128" y2="102"/>
    <line x1="142" y1="97" x2="142" y2="102"/>
    <line x1="156" y1="90" x2="156" y2="102"/>
    <line x1="170" y1="97" x2="170" y2="102"/>
    <line x1="184" y1="94" x2="184" y2="102"/>
    <line x1="198" y1="97" x2="198" y2="102"/>
    <line x1="212" y1="90" x2="212" y2="102"/>
    <line x1="226" y1="97" x2="226" y2="102"/>
    <line x1="240" y1="94" x2="240" y2="102"/>
    <line x1="254" y1="97" x2="254" y2="102"/>
    <line x1="268" y1="90" x2="268" y2="102"/>
    <line x1="282" y1="97" x2="282" y2="102"/>
    <line x1="296" y1="94" x2="296" y2="102"/>
    <line x1="310" y1="97" x2="310" y2="102"/>
    <line x1="324" y1="90" x2="324" y2="102"/>
    <line x1="338" y1="97" x2="338" y2="102"/>
  </g>
  <text x="100" y="84" font-size="9" fill="#5eead4" text-anchor="middle" opacity="0.75" font-family="ui-monospace, SFMono-Regular, Menlo, monospace">0</text>
  <text x="212" y="84" font-size="9" fill="#5eead4" text-anchor="middle" opacity="0.85" font-family="ui-monospace, SFMono-Regular, Menlo, monospace">120</text>
  <text x="324" y="84" font-size="9" fill="#5eead4" text-anchor="middle" opacity="0.75" font-family="ui-monospace, SFMono-Regular, Menlo, monospace">240</text>

  <rect x="48" y="100" width="14" height="170" fill="#16304b" opacity="0.55"/>
  <line x1="62" y1="100" x2="62" y2="270" stroke="#5eead4" stroke-width="1" opacity="0.8"/>
  <g stroke="#5eead4" stroke-width="1" opacity="0.85">
    <line x1="54" y1="110" x2="62" y2="110"/>
    <line x1="57" y1="124" x2="62" y2="124"/>
    <line x1="50" y1="138" x2="62" y2="138"/>
    <line x1="57" y1="152" x2="62" y2="152"/>
    <line x1="54" y1="166" x2="62" y2="166"/>
    <line x1="57" y1="180" x2="62" y2="180"/>
    <line x1="50" y1="194" x2="62" y2="194"/>
    <line x1="57" y1="208" x2="62" y2="208"/>
    <line x1="54" y1="222" x2="62" y2="222"/>
    <line x1="57" y1="236" x2="62" y2="236"/>
    <line x1="50" y1="250" x2="62" y2="250"/>
    <line x1="57" y1="264" x2="62" y2="264"/>
  </g>

  <path d="M100 104 L100 98 M100 101 L340 101 M340 98 L340 104" stroke="#fcd34d" stroke-width="1.6"/>
  <rect x="182" y="72" width="76" height="18" rx="3" fill="#0c1c2e" stroke="#fcd34d" stroke-width="1"/>
  <text x="220" y="85" font-size="10" fill="#fcd34d" text-anchor="middle" font-weight="600" font-family="ui-monospace, SFMono-Regular, Menlo, monospace">offsetWidth</text>

  <path d="M46 110 L52 110 M49 110 L49 260 M46 260 L52 260" stroke="#fcd34d" stroke-width="1.6"/>
  <g transform="rotate(-90 28 185)">
    <rect x="-12" y="177" width="80" height="18" rx="3" fill="#0c1c2e" stroke="#fcd34d" stroke-width="1"/>
    <text x="28" y="190" font-size="10" fill="#fcd34d" text-anchor="middle" font-weight="600" font-family="ui-monospace, SFMono-Regular, Menlo, monospace">offsetHeight</text>
  </g>

  <text x="220" y="195" font-size="13" fill="#ccfbf1" text-anchor="middle" opacity="0.85" font-family="ui-monospace, SFMono-Regular, Menlo, monospace">element</text>

  <g opacity="0.7">
    <rect x="74" y="296" width="40" height="52" rx="3" fill="none" stroke="#5eead4" stroke-width="1.2"/>
    <line x1="78" y1="304" x2="108" y2="304" stroke="#5eead4" stroke-width="1" opacity="0.6"/>
    <line x1="78" y1="310" x2="102" y2="310" stroke="#5eead4" stroke-width="1" opacity="0.5"/>
    <line x1="78" y1="316" x2="108" y2="316" stroke="#5eead4" stroke-width="1" opacity="0.5"/>
    <line x1="78" y1="322" x2="96" y2="322" stroke="#5eead4" stroke-width="1" opacity="0.4"/>
  </g>

  <g opacity="0.6">
    <rect x="134" y="296" width="40" height="52" rx="3" fill="none" stroke="#5eead4" stroke-width="1.2"/>
    <line x1="138" y1="304" x2="168" y2="304" stroke="#5eead4" stroke-width="1" opacity="0.6"/>
    <line x1="138" y1="310" x2="162" y2="310" stroke="#5eead4" stroke-width="1" opacity="0.5"/>
    <line x1="138" y1="316" x2="168" y2="316" stroke="#5eead4" stroke-width="1" opacity="0.5"/>
    <line x1="138" y1="322" x2="156" y2="322" stroke="#5eead4" stroke-width="1" opacity="0.4"/>
  </g>

  <g opacity="0.5">
    <rect x="194" y="296" width="40" height="52" rx="3" fill="none" stroke="#5eead4" stroke-width="1.2"/>
    <line x1="198" y1="304" x2="228" y2="304" stroke="#5eead4" stroke-width="1" opacity="0.5"/>
    <line x1="198" y1="310" x2="222" y2="310" stroke="#5eead4" stroke-width="1" opacity="0.4"/>
    <line x1="198" y1="316" x2="228" y2="316" stroke="#5eead4" stroke-width="1" opacity="0.4"/>
  </g>

  <g opacity="0.4">
    <rect x="254" y="296" width="40" height="52" rx="3" fill="none" stroke="#5eead4" stroke-width="1.2"/>
    <line x1="258" y1="304" x2="288" y2="304" stroke="#5eead4" stroke-width="1" opacity="0.4"/>
    <line x1="258" y1="310" x2="282" y2="310" stroke="#5eead4" stroke-width="1" opacity="0.3"/>
    <line x1="258" y1="316" x2="288" y2="316" stroke="#5eead4" stroke-width="1" opacity="0.3"/>
  </g>

  <g opacity="0.3">
    <rect x="314" y="296" width="40" height="52" rx="3" fill="none" stroke="#5eead4" stroke-width="1.2"/>
    <line x1="318" y1="304" x2="348" y2="304" stroke="#5eead4" stroke-width="1" opacity="0.3"/>
    <line x1="318" y1="310" x2="342" y2="310" stroke="#5eead4" stroke-width="1" opacity="0.2"/>
  </g>

  <text x="74" y="368" font-size="10" fill="#fcd34d" opacity="0.75" font-family="ui-monospace, SFMono-Regular, Menlo, monospace">measureText()</text>

</svg>
