<svg xmlns="http://www.w3.org/2000/svg" viewBox="0 0 400 400" fill="none" font-family="-apple-system, BlinkMacSystemFont, 'Pretendard', 'Apple SD Gothic Neo', sans-serif">

  <text x="40" y="66" font-size="13" font-weight="600" fill="#cffafe" opacity="0.7">파싱</text>
  <rect x="110" y="48" width="52" height="22" rx="3" fill="#22d3ee" opacity="0.18" stroke="#22d3ee" stroke-width="1"/>
  <text x="136" y="64" text-anchor="middle" font-size="10" fill="#67e8f9" font-family="ui-monospace, SFMono-Regular, Menlo, monospace">&lt;html&gt;</text>
  <rect x="170" y="48" width="52" height="22" rx="3" fill="#22d3ee" opacity="0.18" stroke="#22d3ee" stroke-width="1"/>
  <text x="196" y="64" text-anchor="middle" font-size="10" fill="#67e8f9" font-family="ui-monospace, SFMono-Regular, Menlo, monospace">&lt;body&gt;</text>
  <rect x="230" y="48" width="52" height="22" rx="3" fill="#22d3ee" opacity="0.18" stroke="#22d3ee" stroke-width="1"/>
  <text x="256" y="64" text-anchor="middle" font-size="10" fill="#67e8f9" font-family="ui-monospace, SFMono-Regular, Menlo, monospace">&lt;div&gt;</text>
  <rect x="290" y="48" width="52" height="22" rx="3" fill="#22d3ee" opacity="0.18" stroke="#22d3ee" stroke-width="1"/>
  <text x="316" y="64" text-anchor="middle" font-size="10" fill="#67e8f9" font-family="ui-monospace, SFMono-Regular, Menlo, monospace">...</text>

  <text x="40" y="121" font-size="13" font-weight="600" fill="#cffafe" opacity="0.78">DOM</text>
  <circle cx="226" cy="100" r="5.5" fill="#22d3ee"/>
  <circle cx="176" cy="135" r="4.5" fill="#22d3ee" opacity="0.85"/>
  <circle cx="226" cy="135" r="4.5" fill="#22d3ee" opacity="0.85"/>
  <circle cx="276" cy="135" r="4.5" fill="#22d3ee" opacity="0.85"/>
  <line x1="226" y1="100" x2="176" y2="135" stroke="#22d3ee" stroke-width="1.5" opacity="0.65"/>
  <line x1="226" y1="100" x2="226" y2="135" stroke="#22d3ee" stroke-width="1.5" opacity="0.65"/>
  <line x1="226" y1="100" x2="276" y2="135" stroke="#22d3ee" stroke-width="1.5" opacity="0.65"/>

  <text x="40" y="176" font-size="13" font-weight="600" fill="#cffafe" opacity="0.86">스타일</text>
  <circle cx="226" cy="155" r="5.5" fill="#67e8f9"/>
  <circle cx="176" cy="190" r="5" fill="#fb7185" opacity="0.95"/>
  <circle cx="226" cy="190" r="5" fill="#fbbf24" opacity="0.95"/>
  <circle cx="276" cy="190" r="5" fill="#a5b4fc" opacity="0.95"/>
  <line x1="226" y1="155" x2="176" y2="190" stroke="#67e8f9" stroke-width="1.5"/>
  <line x1="226" y1="155" x2="226" y2="190" stroke="#67e8f9" stroke-width="1.5"/>
  <line x1="226" y1="155" x2="276" y2="190" stroke="#67e8f9" stroke-width="1.5"/>

  <text x="40" y="231" font-size="13" font-weight="600" fill="#cffafe" opacity="0.92">레이아웃</text>
  <rect x="120" y="213" width="220" height="36" rx="3" fill="none" stroke="#67e8f9" stroke-width="1.3" stroke-dasharray="3 2"/>
  <rect x="128" y="221" width="58" height="20" rx="2" fill="none" stroke="#67e8f9" stroke-width="1.3"/>
  <rect x="194" y="221" width="80" height="20" rx="2" fill="none" stroke="#67e8f9" stroke-width="1.3"/>
  <rect x="282" y="221" width="50" height="20" rx="2" fill="none" stroke="#67e8f9" stroke-width="1.3"/>

  <text x="40" y="286" font-size="13" font-weight="600" fill="#cffafe" opacity="0.96">페인트</text>
  <rect x="120" y="268" width="220" height="36" rx="3" fill="#0891b2" opacity="0.45"/>
  <rect x="128" y="276" width="58" height="20" rx="2" fill="#fb7185" opacity="0.85"/>
  <rect x="194" y="276" width="80" height="20" rx="2" fill="#fbbf24" opacity="0.75"/>
  <rect x="282" y="276" width="50" height="20" rx="2" fill="#a5b4fc" opacity="0.85"/>

  <text x="40" y="343" font-size="13" font-weight="700" fill="#fb7185">합성</text>
  <rect x="120" y="324" width="220" height="42" rx="4" fill="#fff1f2" opacity="0.95"/>
  <rect x="120" y="324" width="220" height="9" rx="4" fill="#fb7185"/>
  <circle cx="129" cy="328.5" r="1.6" fill="#fff1f2"/>
  <circle cx="135" cy="328.5" r="1.6" fill="#fff1f2"/>
  <circle cx="141" cy="328.5" r="1.6" fill="#fff1f2"/>
  <rect x="128" y="338" width="58" height="22" rx="2" fill="#fb7185" opacity="0.6"/>
  <rect x="194" y="338" width="80" height="9" rx="2" fill="#a5b4fc" opacity="0.7"/>
  <rect x="194" y="350" width="60" height="9" rx="2" fill="#0891b2" opacity="0.55"/>
  <rect x="282" y="338" width="50" height="22" rx="2" fill="#fbbf24" opacity="0.75"/>
</svg>
